# xmcd CD database file
#
# Track frame offsets:
#	150
#	20765
#	49695
#	70667
#	93347
#	112969
#	131539
#	153619
#	173409
#	192622
#	214324
#	234540
#
# Disc length: 3410 seconds
#
# Revision: 0
# Processed by: cddbd v1.5.2PL0 Copyright (c) Steve Scherf et al.
# Submitted via: NeoAudio 9.9.9
#
DISCID=a30d500c
DTITLE=Grupo Gale - Lo máximo !!!
DYEAR=1900
DGENRE=Salsa
TTITLE0=Descarga Galé
TTITLE1=Tributo Al Gran Combo
TTITLE2=Pueblo Mio
TTITLE3=Que No Se Muera El Montuno
TTITLE4=Ironias
TTITLE5=Que Suene Mi Tambo
TTITLE6=Soy Como Soy
TTITLE7=Con El Amor Ne Se Juega
TTITLE8=Homanaje A Los Embajadores
TTITLE9=Daniel
TTITLE10=Te Esperare
TTITLE11=Buscando Tus Besos
EXTD=
EXTT0=
EXTT1=
EXTT2=
EXTT3=
EXTT4=
EXTT5=
EXTT6=
EXTT7=
EXTT8=
EXTT9=
EXTT10=
EXTT11=
PLAYORDER=
